<?xml version="1.0" standalone="no"?><!DOCTYPE svg PUBLIC "-//W3C//DTD SVG 1.1//EN" "http://www.w3.org/Graphics/SVG/1.1/DTD/svg11.dtd"><svg height="1024" node-id="1" sillyvg="true" template-height="1024" template-width="1024" version="1.1" viewBox="0 0 1024 1024" width="1024" xmlns="http://www.w3.org/2000/svg" xmlns:xlink="http://www.w3.org/1999/xlink"><defs node-id="24"></defs><path d="M 0.00 0.00 L 1024.00 0.00 L 1024.00 1024.00 L 0.00 1024.00 Z" fill="#a2b029" fill-rule="nonzero" node-id="26" stroke="none" target-height="1024" target-width="1024" target-x="0" target-y="0"></path><path d="M 301.00 465.40 L 305.30 463.30 L 309.60 461.60 L 314.10 460.30 L 318.70 459.40 L 324.80 458.80 L 331.00 458.90 L 337.20 459.60 L 343.20 460.90 L 349.10 462.70 L 354.80 465.20 L 360.30 468.10 L 365.30 471.60 L 370.00 475.50 L 373.20 478.80 L 378.80 486.00 L 381.10 490.00 L 383.00 494.20 L 384.60 498.50 L 385.70 503.10 L 386.70 512.10 L 386.60 516.20 L 385.20 524.00 L 383.50 529.00 L 381.30 533.70 L 378.50 538.20 L 375.20 542.40 L 371.60 546.30 L 367.50 549.80 L 363.10 552.90 L 358.50 555.50 L 353.60 557.70 L 348.50 559.30 L 343.30 560.40 L 337.90 561.00 L 328.30 561.10 L 323.50 560.60 L 313.90 558.50 L 304.80 555.10 L 300.40 552.90 L 292.40 547.50 L 285.40 540.90 L 282.30 537.10 L 279.60 533.10 L 277.30 528.90 L 275.40 524.30 L 274.20 520.00 L 273.40 515.70 L 273.00 511.30 L 273.10 507.00 L 273.60 502.70 L 275.70 494.30 L 279.20 486.30 L 284.00 479.00 L 286.90 475.70 L 290.10 472.60 L 293.40 469.90 L 301.00 465.40 Z" fill="#fefefd" fill-rule="nonzero" node-id="28" stroke="none" target-height="102.29999" target-width="113.70001" target-x="273" target-y="458.8"></path><path d="M 977.90 470.70 L 984.40 481.40 L 986.50 487.10 L 987.10 490.10 L 987.10 493.20 L 985.30 508.10 L 983.30 519.70 L 979.70 535.00 L 977.30 542.50 L 974.60 549.90 L 971.40 557.00 L 967.80 563.90 L 963.70 570.50 L 959.10 576.80 L 949.20 588.10 L 944.30 593.00 L 939.10 597.50 L 927.90 605.50 L 913.00 614.30 L 885.10 628.70 L 875.90 633.60 L 867.10 638.90 L 850.20 624.90 L 861.20 620.20 L 894.80 606.70 L 902.10 603.40 L 916.20 595.80 L 922.90 591.50 L 929.20 586.60 L 941.00 575.90 L 946.20 570.30 L 951.00 564.30 L 955.40 558.10 L 959.50 551.60 L 963.20 544.90 L 966.40 538.10 L 969.30 531.00 L 971.80 523.70 L 973.90 516.40 L 975.50 508.90 L 976.80 501.30 L 977.70 493.70 L 978.20 486.00 L 978.20 478.40 L 977.90 470.70 Z" fill="#718b40" fill-rule="nonzero" node-id="30" stroke="none" target-height="168.20001" target-width="136.89996" target-x="850.2" target-y="470.7"></path><path d="M 484.00 701.90 L 492.20 698.30 L 500.50 696.20 L 506.10 695.60 L 511.80 695.50 L 517.50 696.00 L 523.20 697.00 L 528.80 698.50 L 534.30 700.40 L 539.70 702.70 L 549.80 708.30 L 544.10 713.50 L 538.00 718.30 L 525.40 727.20 L 511.60 714.20 L 512.60 735.70 L 494.10 719.30 L 494.00 729.50 L 480.70 729.50 L 493.20 748.10 L 476.80 758.40 L 460.10 768.00 L 458.10 763.30 L 456.70 758.50 L 455.70 753.70 L 455.30 748.90 L 455.30 744.00 L 455.90 739.20 L 456.80 734.60 L 458.20 729.90 L 460.10 725.50 L 462.40 721.30 L 465.00 717.30 L 468.10 713.50 L 471.50 710.10 L 475.30 707.00 L 479.40 704.30 L 484.00 701.90 Z" fill="#fdfdfc" fill-rule="nonzero" node-id="32" stroke="none" target-height="72.5" target-width="94.5" target-x="455.3" target-y="695.5"></path><path d="M 655.50 465.30 L 660.70 463.00 L 666.10 461.30 L 671.70 460.00 L 677.40 459.40 L 683.10 459.30 L 688.80 459.60 L 694.50 460.50 L 700.10 461.90 L 705.50 463.80 L 710.70 466.20 L 715.60 469.00 L 720.10 472.30 L 726.10 478.10 L 731.10 484.80 L 733.00 488.50 L 734.70 492.40 L 735.90 496.50 L 737.40 505.60 L 737.50 510.00 L 737.20 514.30 L 735.30 522.60 L 732.10 530.30 L 730.00 534.00 L 726.70 538.60 L 722.90 542.90 L 718.80 546.90 L 714.20 550.40 L 709.40 553.50 L 704.20 556.10 L 698.80 558.20 L 693.30 559.80 L 687.70 560.80 L 679.10 561.20 L 674.90 560.80 L 665.40 559.00 L 660.20 557.40 L 655.10 555.30 L 650.30 552.80 L 645.70 549.90 L 641.30 546.60 L 637.40 542.90 L 633.90 538.80 L 630.90 534.40 L 629.00 530.90 L 627.50 527.20 L 626.40 523.30 L 625.00 514.90 L 624.80 510.80 L 624.90 506.70 L 625.50 502.60 L 626.90 497.30 L 628.80 492.20 L 631.30 487.30 L 634.40 482.60 L 637.80 478.30 L 641.70 474.40 L 646.00 470.90 L 650.60 467.90 L 655.50 465.30 Z" fill="#fdfdfd" fill-rule="nonzero" node-id="34" stroke="none" target-height="101.900024" target-width="112.70001" target-x="624.8" target-y="459.3"></path><path d="M 207.40 157.00 L 216.30 149.60 L 225.50 142.70 L 234.80 136.20 L 244.40 130.10 L 254.20 124.50 L 266.70 117.90 L 279.50 111.90 L 292.50 106.40 L 305.80 101.40 L 319.30 97.00 L 332.90 92.90 L 346.70 89.30 L 360.70 86.20 L 379.40 82.50 L 398.20 79.50 L 417.10 77.00 L 436.10 75.00 L 473.60 72.20 L 499.60 72.00 L 525.90 72.30 L 543.40 72.80 L 578.50 74.90 L 596.10 76.50 L 613.50 78.70 L 630.90 81.30 L 656.60 86.30 L 682.00 92.80 L 694.40 96.60 L 706.80 100.80 L 719.00 105.50 L 731.00 110.60 L 742.80 116.10 L 754.40 122.20 L 765.90 128.80 L 777.10 135.90 L 784.70 140.80 L 791.80 146.10 L 805.40 157.60 L 818.10 170.10 L 827.20 179.80 L 853.70 210.00 L 853.90 203.10 L 853.60 195.90 L 851.90 174.20 L 851.90 167.10 L 852.30 162.40 L 853.10 157.90 L 854.30 153.50 L 857.10 147.30 L 861.50 141.30 L 864.40 138.20 L 867.40 135.50 L 870.60 133.10 L 874.10 131.10 L 878.90 128.90 L 883.90 127.20 L 889.20 126.10 L 894.60 125.40 L 900.00 125.20 L 905.50 125.40 L 911.00 126.00 L 921.40 128.30 L 926.70 130.90 L 931.60 133.90 L 936.20 137.30 L 940.60 141.10 L 948.60 149.40 L 954.10 156.10 L 959.30 163.20 L 969.00 177.60 L 974.80 195.90 L 977.50 208.60 L 978.40 214.90 L 978.90 221.30 L 978.80 227.70 L 978.30 234.00 L 977.50 238.60 L 974.80 247.90 L 972.90 252.40 L 968.40 260.80 L 963.50 268.90 L 958.10 276.70 L 946.50 291.60 L 940.20 298.70 L 930.60 309.20 L 901.10 340.00 L 903.10 358.10 L 904.10 364.10 L 905.60 369.90 L 907.50 375.40 L 909.20 378.90 L 911.30 382.10 L 913.80 385.00 L 916.60 387.60 L 931.10 396.50 L 937.60 401.40 L 943.60 406.80 L 949.30 412.70 L 954.50 419.00 L 959.20 425.60 L 963.50 432.50 L 967.40 439.80 L 970.70 447.20 L 973.60 454.90 L 976.00 462.70 L 977.90 470.70 L 978.20 478.40 L 978.20 486.00 L 977.70 493.70 L 976.80 501.30 L 975.50 508.90 L 973.90 516.40 L 971.80 523.70 L 969.30 531.00 L 966.40 538.10 L 963.20 544.90 L 959.50 551.60 L 955.40 558.10 L 951.00 564.30 L 946.20 570.30 L 941.00 575.90 L 935.30 581.20 L 929.20 586.60 L 922.90 591.50 L 916.20 595.80 L 909.20 599.80 L 894.80 606.70 L 861.20 620.20 L 850.20 624.90 L 902.70 667.90 L 914.20 677.90 L 929.10 691.90 L 936.10 699.30 L 938.90 704.80 L 941.30 710.50 L 943.30 716.40 L 944.80 722.50 L 945.80 728.50 L 946.10 734.70 L 945.90 739.30 L 945.30 743.80 L 944.20 748.30 L 942.70 752.80 L 939.70 757.80 L 936.40 762.40 L 932.60 766.70 L 924.20 774.40 L 912.50 782.80 L 905.20 787.40 L 894.80 793.20 L 884.20 798.50 L 873.40 803.30 L 862.40 807.80 L 839.90 815.50 L 822.80 820.50 L 805.50 824.80 L 770.70 832.10 L 766.90 840.10 L 762.70 848.00 L 758.20 855.60 L 753.30 863.00 L 748.00 870.20 L 742.40 877.00 L 736.40 883.50 L 730.10 889.70 L 723.40 895.40 L 716.30 900.60 L 708.80 905.40 L 701.00 909.70 L 692.40 914.00 L 683.80 917.70 L 674.90 920.90 L 665.80 923.60 L 656.60 925.80 L 647.30 927.50 L 638.00 928.70 L 628.50 929.50 L 619.00 929.80 L 600.10 929.20 L 590.70 928.30 L 580.10 926.40 L 567.30 922.70 L 544.50 914.70 L 536.80 912.40 L 529.00 910.60 L 508.80 908.50 L 498.60 908.10 L 488.40 908.20 L 475.00 909.40 L 468.30 910.60 L 461.80 912.10 L 455.30 914.20 L 440.50 919.90 L 431.90 922.50 L 423.10 924.60 L 414.20 926.30 L 405.10 927.50 L 396.10 928.20 L 387.00 928.50 L 377.80 928.30 L 368.70 927.60 L 359.60 926.40 L 350.70 924.80 L 341.80 922.70 L 333.00 920.10 L 324.50 917.10 L 316.20 913.60 L 308.10 909.70 L 300.20 905.20 L 292.70 900.30 L 285.50 895.00 L 278.60 889.10 L 273.40 884.20 L 268.50 878.90 L 263.80 873.30 L 259.40 867.40 L 252.20 856.70 L 243.20 842.10 L 240.90 839.10 L 238.40 836.40 L 233.50 832.60 L 228.30 830.40 L 205.40 824.50 L 185.30 818.80 L 172.10 814.70 L 158.90 810.10 L 136.40 801.20 L 117.70 792.20 L 108.70 787.20 L 99.90 781.90 L 91.30 776.10 L 83.00 769.90 L 74.90 763.20 L 72.20 757.60 L 69.80 751.80 L 68.00 745.70 L 66.70 739.60 L 66.20 735.40 L 66.40 727.20 L 67.10 723.20 L 68.30 719.20 L 70.00 715.20 L 73.10 709.60 L 76.40 704.30 L 80.10 699.30 L 88.30 689.90 L 99.70 679.20 L 129.00 655.10 L 135.90 649.00 L 147.00 637.20 L 152.20 630.90 L 142.50 625.20 L 132.50 620.00 L 102.10 604.90 L 92.30 599.50 L 79.80 591.40 L 73.80 586.90 L 68.20 582.00 L 62.90 576.60 L 57.90 570.70 L 53.50 565.00 L 49.40 559.10 L 45.70 553.00 L 42.40 546.70 L 39.40 540.10 L 34.50 526.70 L 31.10 512.70 L 30.00 505.70 L 29.30 498.60 L 29.00 491.50 L 29.10 484.30 L 29.70 477.30 L 30.70 470.20 L 32.10 463.30 L 34.00 456.40 L 36.30 449.70 L 39.10 443.10 L 42.40 436.60 L 46.00 430.50 L 49.90 424.70 L 54.20 419.30 L 58.80 414.20 L 68.90 404.80 L 77.10 398.20 L 85.50 392.10 L 102.90 380.60 L 103.10 375.20 L 106.10 351.90 L 106.20 346.20 L 105.90 342.60 L 105.20 339.00 L 104.10 335.70 L 101.40 331.00 L 78.90 308.20 L 69.90 298.70 L 61.20 288.90 L 55.70 282.20 L 45.50 268.20 L 40.90 260.90 L 36.80 253.20 L 33.10 245.30 L 31.70 239.30 L 30.80 233.50 L 30.30 227.70 L 30.30 221.90 L 30.70 216.10 L 32.80 204.80 L 34.40 199.20 L 37.00 191.90 L 40.20 184.80 L 44.00 177.80 L 48.10 171.10 L 52.70 164.60 L 57.60 158.40 L 68.20 146.90 L 78.20 137.90 L 82.80 134.60 L 87.80 131.80 L 93.00 129.60 L 98.40 127.80 L 104.00 126.40 L 109.60 125.60 L 115.30 125.20 L 121.00 125.40 L 126.70 126.00 L 132.30 127.10 L 137.80 128.70 L 141.80 131.10 L 145.40 133.80 L 148.70 137.00 L 151.70 140.50 L 154.30 144.20 L 156.60 148.20 L 158.40 152.40 L 159.80 156.80 L 160.70 161.30 L 161.20 165.80 L 161.10 170.40 L 160.50 175.00 L 154.00 210.20 L 162.50 204.60 L 166.40 201.40 L 171.70 196.20 L 176.80 190.60 L 191.20 172.90 L 196.30 167.20 L 203.50 160.20 L 207.40 157.00 Z M 282.80 164.50 L 272.70 170.40 L 262.90 176.70 L 253.40 183.50 L 244.40 190.70 L 235.70 198.50 L 227.40 206.60 L 219.50 215.10 L 211.90 224.00 L 204.80 233.20 L 198.20 242.70 L 191.90 252.50 L 186.10 262.60 L 180.70 273.00 L 175.70 283.50 L 171.30 294.30 L 167.20 305.20 L 124.20 259.30 L 113.80 247.50 L 101.40 232.20 L 99.70 229.30 L 98.60 226.40 L 98.10 223.40 L 98.10 220.30 L 98.50 217.30 L 99.80 212.70 L 101.70 207.90 L 111.30 189.00 L 112.60 185.90 L 114.20 179.70 L 110.50 180.80 L 107.00 182.20 L 103.70 184.00 L 100.70 186.10 L 97.00 189.50 L 93.70 193.20 L 90.70 197.40 L 88.10 201.90 L 85.90 206.60 L 82.60 216.40 L 80.80 226.00 L 84.80 233.40 L 89.20 240.50 L 93.90 247.40 L 101.50 257.30 L 109.60 266.90 L 118.10 276.20 L 153.20 312.60 L 161.60 322.00 L 158.60 334.40 L 156.10 346.80 L 154.00 359.30 L 152.40 371.80 L 150.70 388.60 L 149.50 405.50 L 148.90 422.40 L 136.10 425.50 L 129.60 427.60 L 123.30 430.20 L 117.10 433.10 L 111.20 436.50 L 105.50 440.30 L 100.30 444.40 L 95.50 449.00 L 92.20 452.70 L 89.20 456.60 L 86.60 460.70 L 84.40 465.10 L 82.60 469.70 L 81.20 474.40 L 80.20 479.50 L 79.40 491.20 L 79.60 497.30 L 80.40 503.20 L 81.60 508.90 L 83.40 514.60 L 85.50 520.00 L 88.10 525.20 L 91.10 530.30 L 94.50 535.20 L 98.20 539.80 L 102.20 544.10 L 111.30 552.10 L 121.20 558.80 L 126.50 561.80 L 132.00 564.40 L 143.20 568.50 L 155.00 571.10 L 160.90 571.80 L 166.80 572.10 L 172.80 572.00 L 176.10 578.40 L 179.80 584.60 L 183.80 590.50 L 188.10 596.20 L 194.30 603.40 L 200.90 610.20 L 208.00 616.70 L 215.40 622.70 L 223.20 628.30 L 231.10 633.60 L 202.20 657.60 L 173.50 682.00 L 116.80 731.60 L 123.90 737.00 L 131.20 742.10 L 138.70 746.70 L 146.30 751.00 L 156.80 756.30 L 167.50 761.10 L 178.50 765.30 L 201.00 772.60 L 212.40 775.80 L 229.70 779.90 L 247.10 783.70 L 281.80 790.40 L 282.80 798.50 L 284.30 806.60 L 285.60 812.00 L 289.10 822.30 L 291.40 827.30 L 294.00 832.10 L 297.10 836.70 L 301.60 842.60 L 306.50 848.10 L 311.80 853.10 L 317.40 857.70 L 323.40 861.80 L 329.70 865.50 L 336.20 868.80 L 343.00 871.70 L 349.90 874.20 L 357.00 876.20 L 364.20 877.80 L 371.50 879.10 L 378.80 879.90 L 386.10 880.40 L 400.70 880.10 L 405.00 879.50 L 413.40 877.40 L 431.70 870.30 L 441.90 866.60 L 460.10 862.90 L 469.80 861.40 L 479.50 860.50 L 499.10 859.80 L 508.90 860.00 L 523.60 860.80 L 538.30 862.00 L 537.90 873.90 L 539.30 863.60 L 566.70 869.60 L 580.10 873.70 L 587.20 876.50 L 594.40 878.70 L 601.60 880.30 L 609.10 881.30 L 616.50 881.80 L 624.00 881.80 L 631.50 881.40 L 639.00 880.40 L 646.50 878.90 L 653.80 877.10 L 661.00 874.80 L 668.10 872.10 L 675.10 869.00 L 681.80 865.50 L 688.20 861.80 L 694.40 857.70 L 698.50 854.60 L 705.60 847.80 L 708.70 844.00 L 712.40 838.70 L 715.70 833.20 L 718.60 827.30 L 723.20 815.00 L 725.00 808.60 L 727.10 798.90 L 728.60 789.30 L 764.40 783.40 L 782.30 779.90 L 800.10 775.90 L 811.90 772.80 L 835.10 765.70 L 846.40 761.50 L 857.60 756.90 L 868.50 751.80 L 884.40 743.10 L 899.70 733.10 L 880.40 715.30 L 860.80 697.90 L 820.80 664.00 L 780.50 630.50 L 789.10 624.70 L 797.20 618.40 L 804.90 611.70 L 812.20 604.50 L 819.10 596.90 L 825.50 589.00 L 831.30 580.60 L 836.80 571.80 L 864.70 565.70 L 871.60 563.80 L 878.30 561.40 L 886.80 557.20 L 896.40 550.60 L 901.80 546.10 L 906.80 541.00 L 911.40 535.60 L 915.50 529.80 L 919.20 523.70 L 922.40 517.30 L 924.90 510.70 L 926.80 504.00 L 927.80 498.80 L 928.40 493.60 L 928.60 488.40 L 928.30 483.20 L 927.60 478.10 L 926.50 473.00 L 924.80 467.90 L 922.60 462.90 L 920.40 458.30 L 917.90 454.10 L 915.10 450.20 L 912.00 446.50 L 907.40 442.10 L 902.30 438.20 L 896.80 434.70 L 891.10 431.60 L 885.10 429.10 L 878.90 426.90 L 872.50 425.10 L 859.90 422.90 L 859.20 406.10 L 857.90 389.40 L 856.20 372.80 L 850.00 322.90 L 883.10 289.10 L 901.10 269.70 L 914.20 253.40 L 920.20 244.80 L 925.60 235.90 L 930.60 226.70 L 928.70 216.90 L 927.30 212.00 L 925.50 207.20 L 921.00 198.00 L 918.20 193.80 L 915.00 189.90 L 911.50 186.30 L 907.60 183.20 L 903.40 180.50 L 898.70 178.40 L 900.20 184.40 L 902.30 190.30 L 909.40 207.70 L 911.40 213.60 L 913.20 221.60 L 913.60 225.80 L 906.90 235.70 L 899.90 245.30 L 892.40 254.60 L 880.70 268.10 L 868.50 281.30 L 843.60 307.20 L 839.70 295.80 L 835.30 284.70 L 830.40 273.80 L 824.90 263.10 L 818.90 252.70 L 812.50 242.60 L 805.60 232.90 L 798.20 223.40 L 790.40 214.30 L 782.20 205.60 L 773.70 197.30 L 764.70 189.40 L 755.30 182.00 L 745.70 175.00 L 735.70 168.50 L 725.30 162.40 L 714.70 156.90 L 703.80 151.90 L 692.70 147.50 L 667.90 139.60 L 654.50 136.00 L 641.10 132.80 L 627.50 130.00 L 609.40 126.90 L 591.10 124.40 L 572.70 122.60 L 554.20 121.30 L 535.80 120.50 L 517.20 120.20 L 498.70 120.30 L 461.90 121.50 L 438.90 123.50 L 415.70 126.10 L 400.40 128.20 L 385.10 130.70 L 358.60 136.10 L 336.30 142.30 L 325.30 145.80 L 314.40 149.80 L 303.70 154.20 L 293.20 159.10 L 282.80 164.50 Z" fill="#fdfefc" fill-rule="nonzero" node-id="36" stroke="none" target-height="857.8" target-width="949.9" target-x="29" target-y="72"></path><path d="M 282.80 164.50 L 293.20 159.10 L 303.70 154.20 L 314.40 149.80 L 325.30 145.80 L 336.30 142.30 L 358.60 136.10 L 385.10 130.70 L 400.40 128.20 L 415.70 126.10 L 438.90 123.50 L 461.90 121.50 L 498.70 120.30 L 517.20 120.20 L 535.80 120.50 L 554.20 121.30 L 572.70 122.60 L 591.10 124.40 L 609.40 126.90 L 627.50 130.00 L 641.10 132.80 L 654.50 136.00 L 667.90 139.60 L 692.70 147.50 L 703.80 151.90 L 714.70 156.90 L 725.30 162.40 L 735.70 168.50 L 745.70 175.00 L 755.30 182.00 L 764.70 189.40 L 773.70 197.30 L 782.20 205.60 L 790.40 214.30 L 798.20 223.40 L 805.60 232.90 L 812.50 242.60 L 818.90 252.70 L 824.90 263.10 L 830.40 273.80 L 835.30 284.70 L 839.70 295.80 L 843.60 307.20 L 868.50 281.30 L 880.70 268.10 L 892.40 254.60 L 899.90 245.30 L 906.90 235.70 L 913.60 225.80 L 913.20 221.60 L 911.40 213.60 L 909.40 207.70 L 902.30 190.30 L 900.20 184.40 L 898.70 178.40 L 903.40 180.50 L 907.60 183.20 L 911.50 186.30 L 915.00 189.90 L 918.20 193.80 L 921.00 198.00 L 925.50 207.20 L 927.30 212.00 L 928.70 216.90 L 930.60 226.70 L 925.60 235.90 L 920.20 244.80 L 914.20 253.40 L 901.10 269.70 L 883.10 289.10 L 850.00 322.90 L 856.20 372.80 L 857.90 389.40 L 859.20 406.10 L 859.90 422.90 L 872.50 425.10 L 878.90 426.90 L 885.10 429.10 L 891.10 431.60 L 896.80 434.70 L 902.30 438.20 L 907.40 442.10 L 912.00 446.50 L 915.10 450.20 L 917.90 454.10 L 920.40 458.30 L 922.60 462.90 L 924.80 467.90 L 926.50 473.00 L 927.60 478.10 L 928.30 483.20 L 928.60 488.40 L 928.40 493.60 L 927.80 498.80 L 926.80 504.00 L 924.90 510.70 L 922.40 517.30 L 919.20 523.70 L 915.50 529.80 L 911.40 535.60 L 906.80 541.00 L 901.80 546.10 L 896.40 550.60 L 886.80 557.20 L 878.30 561.40 L 871.60 563.80 L 864.70 565.70 L 836.80 571.80 L 831.30 580.60 L 825.50 589.00 L 819.10 596.90 L 812.20 604.50 L 804.90 611.70 L 797.20 618.40 L 789.10 624.70 L 780.50 630.50 L 820.80 664.00 L 860.80 697.90 L 880.40 715.30 L 899.70 733.10 L 884.40 743.10 L 868.50 751.80 L 857.60 756.90 L 846.40 761.50 L 835.10 765.70 L 811.90 772.80 L 800.10 775.90 L 782.30 779.90 L 764.40 783.40 L 728.60 789.30 L 727.10 798.90 L 725.00 808.60 L 723.20 815.00 L 718.60 827.30 L 715.70 833.20 L 712.40 838.70 L 708.70 844.00 L 705.60 847.80 L 698.50 854.60 L 694.40 857.70 L 688.20 861.80 L 681.80 865.50 L 675.10 869.00 L 668.10 872.10 L 661.00 874.80 L 653.80 877.10 L 646.50 878.90 L 639.00 880.40 L 631.50 881.40 L 624.00 881.80 L 616.50 881.80 L 609.10 881.30 L 601.60 880.30 L 594.40 878.70 L 587.20 876.50 L 580.10 873.70 L 566.70 869.60 L 539.30 863.60 L 537.90 873.90 L 538.30 862.00 L 523.60 860.80 L 508.90 860.00 L 499.10 859.80 L 479.50 860.50 L 469.80 861.40 L 460.10 862.90 L 441.90 866.60 L 431.70 870.30 L 413.40 877.40 L 405.00 879.50 L 400.70 880.10 L 386.10 880.40 L 378.80 879.90 L 371.50 879.10 L 364.20 877.80 L 357.00 876.20 L 349.90 874.20 L 343.00 871.70 L 336.20 868.80 L 329.70 865.50 L 323.40 861.80 L 317.40 857.70 L 311.80 853.10 L 306.50 848.10 L 301.60 842.60 L 297.10 836.70 L 294.00 832.10 L 291.40 827.30 L 289.10 822.30 L 285.60 812.00 L 284.30 806.60 L 282.80 798.50 L 281.80 790.40 L 247.10 783.70 L 229.70 779.90 L 212.40 775.80 L 201.00 772.60 L 178.50 765.30 L 167.50 761.10 L 156.80 756.30 L 146.30 751.00 L 138.70 746.70 L 131.20 742.10 L 123.90 737.00 L 116.80 731.60 L 173.50 682.00 L 202.20 657.60 L 231.10 633.60 L 223.20 628.30 L 215.40 622.70 L 208.00 616.70 L 200.90 610.20 L 194.30 603.40 L 188.10 596.20 L 183.80 590.50 L 179.80 584.60 L 176.10 578.40 L 172.80 572.00 L 166.80 572.10 L 160.90 571.80 L 155.00 571.10 L 143.20 568.50 L 132.00 564.40 L 126.50 561.80 L 121.20 558.80 L 111.30 552.10 L 102.20 544.10 L 98.20 539.80 L 94.50 535.20 L 91.10 530.30 L 88.10 525.20 L 85.50 520.00 L 83.40 514.60 L 81.60 508.90 L 80.40 503.20 L 79.60 497.30 L 79.40 491.20 L 80.20 479.50 L 81.20 474.40 L 82.60 469.70 L 84.40 465.10 L 86.60 460.70 L 89.20 456.60 L 92.20 452.70 L 95.50 449.00 L 100.30 444.40 L 105.50 440.30 L 111.20 436.50 L 117.10 433.10 L 123.30 430.20 L 129.60 427.60 L 136.10 425.50 L 148.90 422.40 L 149.50 405.50 L 150.70 388.60 L 152.40 371.80 L 154.00 359.30 L 156.10 346.80 L 158.60 334.40 L 161.60 322.00 L 153.20 312.60 L 118.10 276.20 L 109.60 266.90 L 101.50 257.30 L 93.90 247.40 L 89.20 240.50 L 84.80 233.40 L 80.80 226.00 L 82.60 216.40 L 85.90 206.60 L 88.10 201.90 L 90.70 197.40 L 93.70 193.20 L 97.00 189.50 L 100.70 186.10 L 103.70 184.00 L 107.00 182.20 L 110.50 180.80 L 114.20 179.70 L 112.60 185.90 L 111.30 189.00 L 101.70 207.90 L 99.80 212.70 L 98.50 217.30 L 98.10 220.30 L 98.10 223.40 L 98.60 226.40 L 99.70 229.30 L 101.40 232.20 L 113.80 247.50 L 124.20 259.30 L 167.20 305.20 L 171.30 294.30 L 175.70 283.50 L 180.70 273.00 L 186.10 262.60 L 191.90 252.50 L 198.20 242.70 L 204.80 233.20 L 211.90 224.00 L 219.50 215.10 L 227.40 206.60 L 235.70 198.50 L 244.40 190.70 L 253.40 183.50 L 262.90 176.70 L 272.70 170.40 L 282.80 164.50 Z M 446.70 137.70 L 426.50 139.80 L 406.30 142.40 L 392.80 144.50 L 366.10 149.60 L 352.90 152.90 L 339.90 156.60 L 327.00 160.90 L 317.60 164.50 L 308.20 168.50 L 299.00 173.00 L 290.00 177.80 L 281.80 182.60 L 273.90 187.80 L 266.30 193.20 L 258.90 199.10 L 251.80 205.20 L 243.20 213.40 L 235.10 221.90 L 227.50 230.80 L 220.20 240.10 L 213.40 249.80 L 207.00 259.70 L 201.20 269.90 L 195.70 280.30 L 190.40 291.90 L 185.60 303.70 L 181.50 315.60 L 177.90 327.70 L 174.80 340.00 L 172.30 352.30 L 170.20 364.80 L 168.50 377.40 L 166.90 394.30 L 166.00 411.20 L 165.70 428.20 L 165.90 445.20 L 166.50 462.00 L 167.60 478.80 L 169.00 491.60 L 170.80 504.70 L 173.00 517.80 L 175.80 530.80 L 178.00 539.30 L 180.60 547.70 L 183.60 555.90 L 187.00 564.00 L 190.90 571.70 L 195.30 579.20 L 198.90 584.60 L 202.90 589.70 L 207.30 594.70 L 212.00 599.50 L 219.50 605.90 L 227.30 611.70 L 235.30 617.00 L 243.70 621.80 L 252.30 626.20 L 261.00 630.20 L 270.00 633.80 L 279.10 637.00 L 291.50 640.80 L 304.10 644.20 L 329.60 649.50 L 354.90 653.50 L 378.10 656.10 L 401.20 658.20 L 424.40 659.90 L 447.60 661.10 L 470.80 661.80 L 494.10 662.20 L 522.00 662.00 L 549.90 661.20 L 577.80 659.70 L 605.60 657.70 L 633.40 655.00 L 672.50 649.30 L 685.60 646.90 L 698.50 644.20 L 711.40 641.00 L 730.30 635.30 L 748.70 628.20 L 757.60 624.10 L 766.30 619.50 L 774.90 614.40 L 783.20 608.80 L 793.60 600.60 L 798.40 596.00 L 802.90 591.20 L 808.40 584.50 L 813.40 577.30 L 817.90 569.80 L 822.00 562.00 L 825.50 554.00 L 828.60 545.70 L 831.20 537.30 L 833.30 528.80 L 835.00 520.20 L 837.80 502.10 L 840.10 484.00 L 841.80 465.70 L 842.70 451.90 L 843.30 424.40 L 843.10 410.70 L 842.40 396.90 L 841.30 383.30 L 839.70 369.60 L 837.70 356.10 L 835.20 342.60 L 832.20 329.20 L 828.70 315.90 L 824.60 302.80 L 820.60 292.50 L 816.20 282.40 L 811.30 272.60 L 806.00 262.90 L 800.20 253.50 L 794.00 244.50 L 787.40 235.70 L 780.40 227.20 L 773.00 219.10 L 765.30 211.30 L 757.20 203.80 L 748.80 196.80 L 740.00 190.10 L 731.00 183.90 L 721.70 178.10 L 712.10 172.80 L 702.20 167.90 L 692.10 163.50 L 681.80 159.70 L 657.60 152.40 L 643.90 149.00 L 630.00 145.90 L 616.10 143.30 L 588.10 139.20 L 559.90 136.50 L 541.00 135.40 L 522.10 134.90 L 503.20 134.90 L 484.30 135.40 L 465.50 136.30 L 446.70 137.70 Z M 95.30 490.60 L 95.60 496.10 L 96.40 501.30 L 97.60 506.30 L 99.30 511.20 L 101.40 515.90 L 103.90 520.40 L 106.70 524.60 L 109.90 528.70 L 114.60 533.80 L 119.80 538.50 L 125.40 542.80 L 131.40 546.60 L 137.60 549.90 L 144.10 552.80 L 150.70 555.20 L 157.40 557.10 L 164.10 558.40 L 161.80 545.20 L 154.10 505.60 L 149.80 479.10 L 125.70 485.30 L 127.00 481.20 L 128.70 477.50 L 130.80 474.10 L 133.30 471.00 L 139.10 465.60 L 144.10 462.20 L 149.60 459.20 L 148.80 439.70 L 143.50 440.40 L 138.30 441.60 L 133.00 443.20 L 127.90 445.20 L 123.00 447.60 L 118.40 450.40 L 114.00 453.50 L 109.90 457.00 L 106.30 460.90 L 103.00 465.10 L 100.30 469.60 L 98.10 474.40 L 96.00 482.10 L 95.30 490.60 Z M 860.40 438.30 L 859.80 460.10 L 864.30 462.90 L 872.80 469.50 L 876.60 473.20 L 880.20 477.10 L 883.40 481.50 L 858.20 479.50 L 855.40 498.70 L 851.90 517.70 L 844.20 555.70 L 851.30 554.60 L 858.30 552.90 L 865.20 550.50 L 871.90 547.60 L 878.20 544.10 L 884.30 540.10 L 888.60 536.80 L 892.60 533.20 L 899.80 525.30 L 903.00 520.90 L 905.70 516.40 L 908.10 511.70 L 910.00 506.70 L 911.60 501.60 L 912.60 496.30 L 913.20 490.90 L 913.20 485.10 L 912.50 480.00 L 911.30 475.30 L 909.60 470.90 L 907.50 466.80 L 905.00 462.90 L 902.10 459.30 L 898.80 456.00 L 895.20 452.90 L 890.10 449.30 L 884.60 446.10 L 878.80 443.40 L 872.70 441.20 L 866.60 439.50 L 860.40 438.30 Z M 695.80 660.30 L 701.90 673.90 L 707.40 687.80 L 712.30 701.80 L 716.70 716.00 L 719.80 727.50 L 722.50 739.10 L 724.80 750.80 L 726.70 762.50 L 728.20 774.40 L 745.20 771.80 L 762.20 768.70 L 779.20 765.10 L 796.00 761.10 L 812.70 756.50 L 829.20 751.40 L 853.50 742.50 L 877.40 732.20 L 863.20 720.60 L 807.80 672.90 L 793.80 661.20 L 779.60 649.80 L 765.00 638.80 L 753.70 643.20 L 730.90 651.20 L 719.30 654.60 L 707.60 657.70 L 695.80 660.30 Z M 140.60 731.60 L 151.80 737.20 L 163.10 742.30 L 174.50 747.00 L 186.20 751.40 L 201.90 756.60 L 217.70 761.30 L 233.80 765.40 L 250.00 769.00 L 282.50 775.10 L 283.70 762.00 L 285.50 748.90 L 287.90 735.90 L 290.90 723.10 L 294.30 710.40 L 298.30 697.80 L 302.70 685.40 L 307.50 673.10 L 312.80 661.00 L 301.60 658.90 L 290.60 656.30 L 279.70 653.10 L 269.00 649.40 L 258.50 645.30 L 248.00 640.70 L 229.60 655.30 L 193.50 685.20 L 166.90 708.20 L 140.60 731.60 Z M 328.40 665.30 L 323.40 676.60 L 318.70 688.00 L 314.40 699.60 L 310.60 711.40 L 307.20 723.30 L 304.40 735.30 L 302.10 747.50 L 300.50 759.70 L 299.40 772.10 L 299.00 785.60 L 299.10 792.50 L 299.60 799.30 L 301.10 808.10 L 303.90 816.60 L 305.90 820.60 L 311.90 829.70 L 315.70 834.40 L 319.90 838.80 L 324.30 842.80 L 329.00 846.40 L 339.10 852.70 L 344.50 855.40 L 351.90 858.40 L 359.50 860.90 L 367.40 862.80 L 375.40 864.20 L 383.50 865.00 L 391.60 865.40 L 399.70 865.30 L 407.70 864.70 L 415.50 863.60 L 410.30 852.10 L 393.60 817.90 L 388.30 806.40 L 383.30 794.70 L 380.40 786.80 L 371.80 754.30 L 368.90 746.40 L 364.70 741.10 L 360.00 736.20 L 355.10 731.60 L 339.40 718.50 L 329.50 709.30 L 332.40 699.20 L 337.80 700.70 L 342.80 702.70 L 347.70 705.20 L 356.80 711.20 L 367.30 720.20 L 376.50 729.70 L 379.50 733.60 L 384.30 742.00 L 387.90 751.10 L 390.10 758.10 L 395.60 779.90 L 397.70 787.00 L 400.10 793.90 L 425.50 783.70 L 450.50 772.40 L 447.60 757.50 L 446.70 749.90 L 446.50 742.30 L 446.70 737.20 L 447.50 732.30 L 448.60 727.50 L 449.90 724.10 L 453.40 717.40 L 458.90 709.80 L 462.30 706.00 L 465.90 702.50 L 469.90 699.50 L 478.40 694.30 L 487.70 690.50 L 494.20 688.60 L 500.80 687.20 L 507.60 686.30 L 514.40 685.80 L 527.90 686.00 L 546.10 694.40 L 551.90 697.80 L 555.50 700.30 L 562.10 706.30 L 565.60 710.50 L 568.50 715.10 L 570.90 719.90 L 572.80 725.00 L 574.10 730.20 L 574.90 735.50 L 575.30 741.00 L 575.10 746.40 L 574.50 751.80 L 573.40 757.20 L 571.90 762.40 L 569.90 767.40 L 567.00 772.60 L 563.70 777.40 L 559.90 781.90 L 555.70 785.90 L 551.20 789.60 L 546.30 793.00 L 541.20 796.00 L 535.90 798.50 L 530.40 800.70 L 519.00 804.00 L 513.30 805.00 L 508.00 805.40 L 502.80 805.20 L 497.70 804.50 L 492.70 803.30 L 487.90 801.70 L 483.10 799.70 L 476.20 796.10 L 469.50 792.00 L 456.90 782.90 L 448.70 787.50 L 440.30 791.50 L 431.70 795.00 L 425.10 797.20 L 418.40 799.00 L 411.50 800.20 L 404.50 801.00 L 428.00 854.50 L 464.60 847.50 L 476.90 845.60 L 485.10 844.70 L 493.40 844.20 L 508.90 844.40 L 523.10 845.60 L 533.70 847.20 L 544.30 849.20 L 586.20 858.50 L 588.20 851.90 L 593.10 839.00 L 610.20 801.30 L 614.00 791.80 L 617.30 782.00 L 619.10 775.40 L 620.40 768.70 L 622.20 756.10 L 623.50 750.80 L 625.30 745.50 L 627.50 740.50 L 630.10 735.60 L 633.00 730.90 L 636.40 726.50 L 640.00 722.30 L 648.20 714.80 L 657.40 708.50 L 662.30 705.80 L 667.30 703.50 L 672.50 701.60 L 677.80 700.10 L 679.00 703.30 L 679.40 706.00 L 679.30 708.40 L 678.60 710.70 L 677.40 712.90 L 675.90 714.90 L 673.00 717.70 L 659.00 727.90 L 656.30 730.50 L 652.40 733.70 L 649.10 737.00 L 646.30 740.70 L 644.10 744.60 L 642.10 748.80 L 640.60 753.20 L 638.70 760.00 L 634.50 781.30 L 632.90 788.30 L 630.80 794.80 L 625.60 806.90 L 609.20 842.70 L 602.70 858.90 L 599.90 867.20 L 614.50 867.20 L 622.20 866.70 L 637.50 864.70 L 645.10 863.10 L 652.60 861.00 L 659.90 858.60 L 666.90 855.70 L 673.70 852.30 L 680.10 848.40 L 686.00 844.10 L 690.20 840.50 L 694.00 836.60 L 697.50 832.40 L 700.70 827.80 L 703.50 823.00 L 705.90 817.90 L 707.80 812.30 L 709.40 806.30 L 710.40 797.20 L 710.90 788.00 L 711.00 778.90 L 710.60 769.80 L 709.80 760.70 L 707.10 742.60 L 705.20 733.70 L 702.20 721.80 L 698.60 710.10 L 694.50 698.60 L 689.90 687.20 L 684.90 676.10 L 679.50 665.20 L 634.10 670.40 L 611.30 672.50 L 543.00 677.50 L 471.30 676.60 L 423.50 674.70 L 399.70 673.20 L 375.90 671.20 L 352.10 668.60 L 328.40 665.30 Z M 484.00 701.90 L 479.40 704.30 L 475.30 707.00 L 471.50 710.10 L 468.10 713.50 L 465.00 717.30 L 462.40 721.30 L 460.10 725.50 L 458.20 729.90 L 456.80 734.60 L 455.90 739.20 L 455.30 744.00 L 455.30 748.90 L 455.70 753.70 L 456.70 758.50 L 458.10 763.30 L 460.10 768.00 L 476.80 758.40 L 493.20 748.10 L 480.70 729.50 L 494.00 729.50 L 494.10 719.30 L 512.60 735.70 L 511.60 714.20 L 525.40 727.20 L 538.00 718.30 L 544.10 713.50 L 549.80 708.30 L 539.70 702.70 L 534.30 700.40 L 528.80 698.50 L 523.20 697.00 L 517.50 696.00 L 511.80 695.50 L 506.10 695.60 L 500.50 696.20 L 492.20 698.30 L 484.00 701.90 Z M 540.50 730.20 L 541.20 733.20 L 541.20 735.80 L 540.80 738.00 L 538.70 742.10 L 534.50 746.50 L 525.90 753.90 L 534.80 769.70 L 530.90 770.80 L 527.10 771.30 L 523.30 771.20 L 519.70 770.60 L 516.00 769.30 L 512.40 767.60 L 500.10 775.30 L 500.40 758.60 L 489.00 764.70 L 466.80 777.60 L 477.40 784.80 L 483.00 788.10 L 488.80 790.90 L 496.90 793.70 L 505.50 795.00 L 513.90 794.80 L 518.10 794.10 L 523.60 792.70 L 529.00 790.80 L 534.10 788.20 L 539.10 785.20 L 543.70 781.80 L 547.90 777.90 L 551.90 773.70 L 555.30 769.20 L 558.30 764.40 L 560.80 759.40 L 562.70 754.20 L 563.90 748.90 L 564.50 744.90 L 564.60 740.80 L 564.30 736.70 L 563.60 732.60 L 562.50 728.60 L 560.90 724.60 L 558.80 720.60 L 556.10 716.50 L 540.50 730.20 Z" fill="#080504" fill-rule="nonzero" node-id="38" stroke="none" target-height="761.6" target-width="851.19995" target-x="79.4" target-y="120.2"></path><path d="M 446.70 137.70 L 465.50 136.30 L 484.30 135.40 L 503.20 134.90 L 522.10 134.90 L 541.00 135.40 L 559.90 136.50 L 588.10 139.20 L 616.10 143.30 L 630.00 145.90 L 643.90 149.00 L 657.60 152.40 L 681.80 159.70 L 692.10 163.50 L 702.20 167.90 L 712.10 172.80 L 721.70 178.10 L 731.00 183.90 L 740.00 190.10 L 748.80 196.80 L 757.20 203.80 L 765.30 211.30 L 773.00 219.10 L 780.40 227.20 L 787.40 235.70 L 794.00 244.50 L 800.20 253.50 L 806.00 262.90 L 811.30 272.60 L 816.20 282.40 L 820.60 292.50 L 824.60 302.80 L 828.70 315.90 L 832.20 329.20 L 835.20 342.60 L 837.70 356.10 L 839.70 369.60 L 841.30 383.30 L 842.40 396.90 L 843.10 410.70 L 843.20 438.20 L 841.80 465.70 L 840.10 484.00 L 837.80 502.10 L 835.00 520.20 L 833.30 528.80 L 831.20 537.30 L 828.60 545.70 L 825.50 554.00 L 822.00 562.00 L 817.90 569.80 L 813.40 577.30 L 808.40 584.50 L 802.90 591.20 L 793.60 600.60 L 788.60 604.80 L 783.20 608.80 L 774.90 614.40 L 766.30 619.50 L 757.60 624.10 L 748.70 628.20 L 730.30 635.30 L 720.90 638.30 L 698.50 644.20 L 685.60 646.90 L 672.50 649.30 L 633.40 655.00 L 605.60 657.70 L 577.80 659.70 L 549.90 661.20 L 522.00 662.00 L 494.10 662.20 L 470.80 661.80 L 447.60 661.10 L 424.40 659.90 L 401.20 658.20 L 378.10 656.10 L 354.90 653.50 L 329.60 649.50 L 304.10 644.20 L 291.50 640.80 L 279.10 637.00 L 270.00 633.80 L 261.00 630.20 L 252.30 626.20 L 243.70 621.80 L 235.30 617.00 L 227.30 611.70 L 219.50 605.90 L 212.00 599.50 L 207.30 594.70 L 202.90 589.70 L 198.90 584.60 L 195.30 579.20 L 190.90 571.70 L 187.00 564.00 L 183.60 555.90 L 180.60 547.70 L 178.00 539.30 L 175.80 530.80 L 173.00 517.80 L 170.80 504.70 L 167.60 478.80 L 166.50 462.00 L 165.90 445.20 L 165.70 428.20 L 166.00 411.20 L 166.90 394.30 L 168.50 377.40 L 170.20 364.80 L 172.30 352.30 L 174.80 340.00 L 177.90 327.70 L 181.50 315.60 L 185.60 303.70 L 190.40 291.90 L 195.70 280.30 L 201.20 269.90 L 207.00 259.70 L 213.40 249.80 L 220.20 240.10 L 227.50 230.80 L 235.10 221.90 L 243.20 213.40 L 251.80 205.20 L 258.90 199.10 L 266.30 193.20 L 273.90 187.80 L 281.80 182.60 L 290.00 177.80 L 299.00 173.00 L 308.20 168.50 L 317.60 164.50 L 327.00 160.90 L 339.90 156.60 L 352.90 152.90 L 366.10 149.60 L 392.80 144.50 L 406.30 142.40 L 426.50 139.80 L 446.70 137.70 Z M 300.00 436.20 L 294.40 438.30 L 289.00 440.80 L 283.70 443.80 L 278.60 447.10 L 273.80 450.70 L 269.20 454.60 L 265.00 458.90 L 261.00 463.40 L 257.40 468.20 L 254.10 473.20 L 251.30 478.50 L 248.90 483.90 L 247.00 489.60 L 245.50 495.40 L 244.60 501.30 L 244.20 507.40 L 244.20 513.50 L 244.60 519.30 L 245.60 525.00 L 247.10 530.50 L 249.10 535.90 L 251.50 541.10 L 254.30 546.10 L 257.50 550.90 L 265.00 559.80 L 273.60 567.80 L 279.90 572.40 L 286.50 576.60 L 293.50 580.20 L 300.70 583.30 L 307.90 585.70 L 315.30 587.50 L 325.90 589.00 L 336.70 589.10 L 343.90 588.30 L 351.00 587.00 L 358.00 585.10 L 364.80 582.60 L 371.30 579.70 L 377.60 576.10 L 383.60 572.10 L 389.20 567.60 L 394.30 562.70 L 397.80 558.70 L 403.90 550.00 L 406.50 545.30 L 408.70 540.50 L 410.50 535.40 L 411.90 530.10 L 412.80 524.50 L 413.40 518.30 L 413.40 512.10 L 412.90 506.10 L 411.90 500.20 L 410.40 494.40 L 408.50 488.70 L 406.20 483.20 L 403.40 477.80 L 400.30 472.70 L 396.80 467.80 L 393.00 463.10 L 388.90 458.60 L 379.80 450.50 L 369.80 443.60 L 364.50 440.70 L 359.00 438.10 L 353.40 435.90 L 347.60 434.10 L 341.70 432.70 L 335.80 431.80 L 329.90 431.30 L 323.90 431.20 L 317.90 431.70 L 311.90 432.60 L 306.00 434.10 L 300.00 436.20 Z M 660.20 435.50 L 648.90 439.60 L 643.50 442.20 L 633.00 448.40 L 628.20 452.00 L 619.20 460.00 L 615.10 464.50 L 611.40 469.10 L 608.00 474.10 L 605.00 479.20 L 602.40 484.60 L 600.20 490.20 L 598.50 496.00 L 597.30 502.10 L 596.60 507.70 L 596.40 513.20 L 596.60 518.60 L 597.30 523.90 L 598.50 529.20 L 600.00 534.40 L 601.90 539.40 L 606.90 549.10 L 613.20 557.90 L 616.80 562.00 L 620.70 565.90 L 629.20 572.80 L 638.50 578.50 L 643.40 580.90 L 648.50 582.80 L 659.10 586.00 L 664.60 587.20 L 670.10 588.00 L 675.70 588.40 L 683.20 588.30 L 690.70 587.60 L 698.20 586.30 L 705.60 584.30 L 712.70 581.80 L 719.70 578.70 L 726.40 575.10 L 732.70 571.00 L 738.70 566.40 L 746.80 558.60 L 753.60 550.00 L 756.60 545.30 L 759.20 540.40 L 761.40 535.40 L 763.20 530.10 L 764.50 524.70 L 765.40 519.20 L 765.80 513.40 L 765.50 501.00 L 764.70 494.80 L 763.30 488.90 L 761.40 483.10 L 759.00 477.50 L 756.10 472.20 L 752.80 467.10 L 749.10 462.30 L 745.00 457.70 L 740.60 453.50 L 735.90 449.60 L 730.80 446.00 L 725.50 442.80 L 720.10 439.90 L 714.40 437.50 L 708.60 435.40 L 702.60 433.70 L 696.60 432.50 L 690.50 431.80 L 684.40 431.50 L 678.20 431.70 L 672.20 432.40 L 666.20 433.70 L 660.20 435.50 Z M 460.50 572.60 L 462.70 576.30 L 465.20 579.50 L 467.90 582.50 L 471.00 585.20 L 475.50 588.30 L 480.40 590.90 L 485.60 593.00 L 491.10 594.50 L 496.60 595.50 L 502.30 596.00 L 508.00 595.90 L 513.60 595.30 L 519.10 594.20 L 524.50 592.50 L 529.40 590.30 L 534.10 587.60 L 537.40 585.20 L 540.30 582.50 L 542.90 579.50 L 545.30 576.20 L 547.20 572.60 L 548.80 568.80 L 550.00 564.60 L 550.70 560.00 L 544.90 563.20 L 527.60 574.50 L 523.60 576.80 L 515.40 580.30 L 511.20 581.40 L 506.70 582.00 L 498.40 581.70 L 495.00 581.10 L 491.80 580.00 L 487.20 577.90 L 482.70 575.10 L 470.00 565.90 L 465.70 563.10 L 462.30 563.20 L 460.10 563.60 L 458.70 564.30 L 457.90 565.20 L 457.60 566.30 L 457.80 567.80 L 458.70 569.80 L 460.50 572.60 Z" fill="#c62f34" fill-rule="nonzero" node-id="40" stroke="none" target-height="527.30005" target-width="677.5" target-x="165.7" target-y="134.9"></path><path d="M 966.40 167.70 L 971.60 173.30 L 976.30 179.20 L 980.70 185.40 L 984.60 192.00 L 988.00 198.80 L 990.80 205.80 L 992.60 211.20 L 994.90 222.20 L 995.60 227.80 L 995.80 233.40 L 995.60 239.10 L 994.90 244.80 L 992.60 256.90 L 991.10 263.10 L 989.30 269.00 L 987.00 274.70 L 983.40 282.00 L 979.30 289.10 L 974.80 296.00 L 964.60 309.00 L 959.00 315.30 L 933.10 342.70 L 924.90 351.80 L 925.20 358.00 L 927.00 376.50 L 927.40 382.70 L 927.40 388.90 L 924.10 392.00 L 920.00 389.90 L 916.60 387.60 L 913.80 385.00 L 911.30 382.10 L 909.20 378.90 L 907.50 375.40 L 905.60 369.90 L 904.10 364.10 L 903.10 358.10 L 901.10 340.00 L 930.60 309.20 L 940.20 298.70 L 952.40 284.20 L 958.10 276.70 L 963.50 268.90 L 968.40 260.80 L 972.90 252.40 L 976.40 243.30 L 978.30 234.00 L 978.80 227.70 L 978.90 221.30 L 978.40 214.90 L 976.30 202.20 L 974.80 195.90 L 969.00 177.60 L 966.40 167.70 Z" fill="#829632" fill-rule="nonzero" node-id="42" stroke="none" target-height="224.3" target-width="94.70001" target-x="901.1" target-y="167.7"></path><path d="M 300.00 436.20 L 306.00 434.10 L 311.90 432.60 L 317.90 431.70 L 323.90 431.20 L 329.90 431.30 L 335.80 431.80 L 341.70 432.70 L 347.60 434.10 L 353.40 435.90 L 359.00 438.10 L 364.50 440.70 L 374.90 446.90 L 384.50 454.40 L 388.90 458.60 L 393.00 463.10 L 396.80 467.80 L 400.30 472.70 L 403.40 477.80 L 406.20 483.20 L 408.50 488.70 L 410.40 494.40 L 411.90 500.20 L 412.90 506.10 L 413.40 512.10 L 413.40 518.30 L 412.80 524.50 L 411.90 530.10 L 410.50 535.40 L 408.70 540.50 L 406.50 545.30 L 401.00 554.50 L 394.30 562.70 L 389.20 567.60 L 383.60 572.10 L 377.60 576.10 L 371.30 579.70 L 364.80 582.60 L 358.00 585.10 L 351.00 587.00 L 343.90 588.30 L 336.70 589.10 L 331.30 589.20 L 320.60 588.40 L 315.30 587.50 L 307.90 585.70 L 300.70 583.30 L 293.50 580.20 L 286.50 576.60 L 279.90 572.40 L 273.60 567.80 L 269.10 563.90 L 265.00 559.80 L 257.50 550.90 L 254.30 546.10 L 251.50 541.10 L 249.10 535.90 L 247.10 530.50 L 245.60 525.00 L 244.60 519.30 L 244.20 513.50 L 244.20 507.40 L 244.60 501.30 L 245.50 495.40 L 247.00 489.60 L 248.90 483.90 L 251.30 478.50 L 254.10 473.20 L 257.40 468.20 L 261.00 463.40 L 265.00 458.90 L 269.20 454.60 L 273.80 450.70 L 278.60 447.10 L 283.70 443.80 L 289.00 440.80 L 294.40 438.30 L 300.00 436.20 Z M 301.00 465.40 L 293.40 469.90 L 290.10 472.60 L 286.90 475.70 L 284.00 479.00 L 279.20 486.30 L 275.70 494.30 L 273.60 502.70 L 273.10 507.00 L 273.00 511.40 L 273.40 515.70 L 274.20 520.00 L 275.40 524.30 L 277.30 528.90 L 279.60 533.10 L 282.30 537.10 L 285.40 540.90 L 292.40 547.50 L 300.40 552.90 L 304.80 555.10 L 313.90 558.50 L 323.50 560.60 L 328.30 561.10 L 337.90 561.00 L 343.30 560.40 L 348.50 559.30 L 353.60 557.70 L 358.50 555.50 L 363.10 552.90 L 367.50 549.80 L 371.60 546.30 L 375.20 542.40 L 378.50 538.20 L 381.30 533.70 L 383.50 529.00 L 385.20 524.00 L 386.60 516.20 L 386.70 512.10 L 385.70 503.10 L 384.60 498.50 L 383.00 494.20 L 381.10 490.00 L 378.80 486.00 L 373.20 478.80 L 370.00 475.50 L 365.30 471.60 L 360.30 468.10 L 354.80 465.20 L 349.10 462.70 L 343.20 460.90 L 337.20 459.60 L 331.00 458.90 L 324.80 458.80 L 318.70 459.40 L 314.10 460.30 L 309.60 461.60 L 305.30 463.30 L 301.00 465.40 Z" fill="#050506" fill-rule="nonzero" node-id="44" stroke="none" target-height="158" target-width="169.2" target-x="244.2" target-y="431.2"></path><path d="M 660.20 435.50 L 666.20 433.70 L 672.20 432.40 L 678.20 431.70 L 684.40 431.50 L 690.50 431.80 L 696.60 432.50 L 702.60 433.70 L 708.60 435.40 L 714.40 437.50 L 720.10 439.90 L 725.50 442.80 L 730.80 446.00 L 735.90 449.60 L 740.60 453.50 L 745.00 457.70 L 749.10 462.30 L 752.80 467.10 L 756.10 472.20 L 759.00 477.50 L 761.40 483.10 L 763.30 488.90 L 764.70 494.80 L 765.50 501.00 L 765.80 513.40 L 765.40 519.20 L 764.50 524.70 L 763.20 530.10 L 761.40 535.40 L 759.20 540.40 L 756.60 545.30 L 753.60 550.00 L 746.80 558.60 L 738.70 566.40 L 732.70 571.00 L 726.40 575.10 L 719.70 578.70 L 712.70 581.80 L 705.60 584.30 L 698.20 586.30 L 690.70 587.60 L 683.20 588.30 L 675.70 588.40 L 670.10 588.00 L 664.60 587.20 L 659.10 586.00 L 648.50 582.80 L 643.40 580.90 L 638.50 578.50 L 629.20 572.80 L 620.70 565.90 L 616.80 562.00 L 613.20 557.90 L 606.90 549.10 L 601.90 539.40 L 600.00 534.40 L 598.50 529.20 L 597.30 523.90 L 596.60 518.60 L 596.40 513.20 L 596.60 507.70 L 597.30 502.10 L 598.60 496.00 L 600.20 490.20 L 602.40 484.60 L 605.00 479.20 L 608.00 474.10 L 611.40 469.10 L 615.10 464.50 L 619.20 460.00 L 628.20 452.00 L 633.00 448.50 L 643.50 442.20 L 648.90 439.60 L 660.20 435.50 Z M 655.50 465.30 L 650.60 467.90 L 646.00 470.90 L 641.70 474.40 L 637.80 478.30 L 634.40 482.60 L 631.30 487.30 L 628.80 492.20 L 626.90 497.30 L 625.50 502.60 L 624.90 506.70 L 624.80 510.80 L 625.00 514.90 L 626.40 523.30 L 627.50 527.20 L 629.00 530.90 L 630.90 534.40 L 633.90 538.80 L 637.40 542.90 L 641.30 546.60 L 645.70 549.90 L 650.30 552.80 L 655.10 555.30 L 660.20 557.40 L 665.40 559.00 L 674.90 560.80 L 683.40 561.20 L 687.70 560.80 L 693.30 559.80 L 698.80 558.20 L 704.20 556.10 L 709.40 553.50 L 714.20 550.40 L 718.80 546.90 L 722.90 542.90 L 726.70 538.60 L 730.00 534.00 L 733.90 526.50 L 736.40 518.40 L 737.20 514.30 L 737.50 510.00 L 737.40 505.60 L 735.90 496.50 L 734.70 492.40 L 733.00 488.50 L 728.70 481.30 L 723.20 475.10 L 720.10 472.30 L 715.60 469.00 L 710.70 466.20 L 705.50 463.80 L 700.10 461.90 L 694.50 460.50 L 688.80 459.60 L 683.10 459.30 L 677.40 459.40 L 671.70 460.00 L 666.10 461.30 L 660.70 463.00 L 655.50 465.30 Z" fill="#050506" fill-rule="nonzero" node-id="46" stroke="none" target-height="156.90002" target-width="169.39996" target-x="596.4" target-y="431.5"></path><path d="M 95.30 490.60 L 96.00 482.10 L 98.10 474.40 L 100.30 469.60 L 103.00 465.10 L 106.30 460.90 L 109.90 457.00 L 114.00 453.50 L 118.40 450.40 L 123.00 447.60 L 127.90 445.20 L 133.00 443.20 L 138.30 441.60 L 143.50 440.40 L 148.80 439.70 L 149.60 459.20 L 144.10 462.20 L 139.10 465.60 L 133.30 471.00 L 130.80 474.10 L 128.70 477.50 L 127.00 481.20 L 125.70 485.30 L 149.80 479.10 L 154.10 505.60 L 161.80 545.20 L 164.10 558.40 L 157.40 557.10 L 150.70 555.20 L 144.10 552.80 L 137.60 549.90 L 131.40 546.60 L 125.40 542.80 L 119.80 538.50 L 114.60 533.80 L 109.90 528.70 L 106.70 524.60 L 103.90 520.40 L 101.40 515.90 L 99.30 511.20 L 97.60 506.30 L 96.40 501.30 L 95.60 496.10 L 95.30 490.60 Z" fill="#c43333" fill-rule="nonzero" node-id="48" stroke="none" target-height="118.70001" target-width="68.8" target-x="95.3" target-y="439.7"></path><path d="M 860.40 438.30 L 866.60 439.50 L 872.70 441.20 L 878.80 443.40 L 884.60 446.10 L 890.10 449.30 L 895.20 452.90 L 898.80 456.00 L 902.10 459.30 L 905.00 462.90 L 907.50 466.80 L 909.60 470.90 L 911.30 475.30 L 912.50 480.00 L 913.20 485.10 L 913.20 490.90 L 912.60 496.30 L 911.60 501.60 L 910.00 506.70 L 908.10 511.70 L 905.70 516.40 L 903.00 520.90 L 899.80 525.30 L 892.60 533.20 L 884.30 540.10 L 878.20 544.10 L 871.90 547.60 L 865.20 550.50 L 858.30 552.90 L 851.30 554.60 L 844.20 555.70 L 851.90 517.70 L 855.40 498.70 L 858.20 479.50 L 883.40 481.50 L 880.20 477.10 L 876.60 473.20 L 872.80 469.50 L 864.30 462.90 L 859.80 460.10 L 860.40 438.30 Z" fill="#c23133" fill-rule="nonzero" node-id="50" stroke="none" target-height="117.400024" target-width="69" target-x="844.2" target-y="438.3"></path><path d="M 460.50 572.60 L 458.70 569.80 L 457.80 567.80 L 457.60 566.30 L 457.90 565.20 L 458.70 564.30 L 460.10 563.60 L 462.30 563.20 L 465.70 563.10 L 470.00 565.90 L 482.70 575.10 L 487.20 577.90 L 491.80 580.00 L 495.00 581.10 L 498.40 581.70 L 506.70 582.00 L 511.20 581.40 L 515.40 580.30 L 523.60 576.80 L 527.60 574.50 L 544.90 563.20 L 550.70 560.00 L 550.00 564.60 L 548.80 568.80 L 547.20 572.60 L 545.30 576.20 L 542.90 579.50 L 540.30 582.50 L 537.40 585.20 L 534.10 587.60 L 529.40 590.30 L 524.50 592.50 L 519.10 594.20 L 513.60 595.30 L 508.00 595.90 L 502.30 596.00 L 496.60 595.50 L 491.10 594.50 L 485.60 593.00 L 480.40 590.90 L 475.50 588.30 L 471.00 585.20 L 467.90 582.50 L 465.20 579.50 L 462.70 576.30 L 460.50 572.60 Z" fill="#0b0000" fill-rule="nonzero" node-id="52" stroke="none" target-height="36" target-width="93.100006" target-x="457.6" target-y="560"></path><path d="M 57.90 570.70 L 62.90 576.60 L 68.20 582.00 L 73.80 586.90 L 85.90 595.60 L 102.10 604.90 L 132.50 620.00 L 142.50 625.20 L 152.20 630.90 L 147.00 637.20 L 135.90 649.00 L 126.50 641.10 L 121.40 637.30 L 89.10 615.70 L 84.00 611.80 L 74.70 603.50 L 70.60 598.90 L 67.00 594.10 L 63.80 588.90 L 61.80 584.80 L 60.10 580.40 L 58.80 575.70 L 57.90 570.70 Z" fill="#82983a" fill-rule="nonzero" node-id="54" stroke="none" target-height="78.29999" target-width="94.299995" target-x="57.9" target-y="570.7"></path><path d="M 695.80 660.30 L 707.60 657.70 L 719.30 654.60 L 730.90 651.20 L 753.70 643.20 L 765.00 638.80 L 779.60 649.80 L 793.80 661.20 L 807.80 672.90 L 863.20 720.60 L 877.40 732.20 L 865.50 737.50 L 841.40 747.10 L 829.20 751.40 L 812.70 756.50 L 796.00 761.10 L 779.20 765.10 L 762.20 768.70 L 745.20 771.80 L 728.20 774.40 L 726.70 762.50 L 724.80 750.80 L 722.50 739.10 L 719.80 727.50 L 716.70 716.00 L 712.30 701.80 L 707.40 687.80 L 701.90 673.90 L 695.80 660.30 Z" fill="#fdd129" fill-rule="nonzero" node-id="56" stroke="none" target-height="135.60004" target-width="181.60004" target-x="695.8" target-y="638.8"></path><path d="M 140.60 731.60 L 166.90 708.20 L 193.50 685.20 L 229.60 655.30 L 248.00 640.70 L 258.50 645.30 L 269.00 649.40 L 279.70 653.10 L 290.60 656.30 L 301.60 658.90 L 312.80 661.00 L 307.50 673.10 L 302.70 685.40 L 298.30 697.80 L 294.30 710.40 L 290.90 723.10 L 287.90 735.90 L 285.50 748.90 L 283.70 762.00 L 282.50 775.10 L 250.00 769.00 L 233.80 765.40 L 217.70 761.30 L 201.90 756.60 L 186.20 751.40 L 174.50 747.00 L 163.10 742.30 L 151.80 737.20 L 140.60 731.60 Z" fill="#fbd12a" fill-rule="nonzero" node-id="58" stroke="none" target-height="134.39996" target-width="172.19998" target-x="140.6" target-y="640.7"></path><path d="M 328.40 665.30 L 352.10 668.60 L 375.90 671.20 L 399.70 673.20 L 423.50 674.70 L 471.30 676.60 L 543.00 677.50 L 527.90 686.00 L 514.40 685.80 L 507.60 686.30 L 500.80 687.20 L 494.20 688.60 L 487.70 690.50 L 483.00 692.30 L 474.00 696.70 L 469.90 699.50 L 465.90 702.50 L 462.30 706.00 L 458.90 709.80 L 453.40 717.40 L 449.90 724.10 L 448.60 727.50 L 447.50 732.30 L 446.70 737.20 L 446.50 742.30 L 446.70 749.90 L 447.60 757.50 L 450.50 772.40 L 425.50 783.70 L 400.10 793.90 L 397.70 787.00 L 395.60 779.90 L 390.10 758.10 L 387.90 751.10 L 384.30 742.00 L 379.50 733.60 L 376.50 729.70 L 367.30 720.20 L 356.80 711.20 L 347.70 705.20 L 342.80 702.70 L 337.80 700.70 L 332.40 699.20 L 329.50 709.30 L 339.40 718.50 L 355.10 731.60 L 360.00 736.20 L 364.70 741.10 L 368.90 746.40 L 371.80 754.30 L 380.40 786.80 L 383.30 794.70 L 388.30 806.40 L 393.60 817.90 L 410.30 852.10 L 415.50 863.60 L 407.70 864.70 L 399.70 865.30 L 391.60 865.40 L 383.50 865.00 L 375.40 864.20 L 367.40 862.80 L 359.50 860.90 L 351.90 858.40 L 344.50 855.40 L 339.10 852.70 L 333.90 849.70 L 329.00 846.40 L 324.30 842.80 L 319.90 838.80 L 315.70 834.40 L 311.90 829.70 L 305.90 820.60 L 303.90 816.60 L 301.10 808.10 L 299.60 799.30 L 299.10 792.50 L 299.00 785.60 L 299.40 772.10 L 300.50 759.70 L 302.10 747.50 L 304.40 735.30 L 307.20 723.30 L 310.60 711.40 L 314.40 699.60 L 318.70 688.00 L 323.40 676.60 L 328.40 665.30 Z" fill="#fcd127" fill-rule="nonzero" node-id="60" stroke="none" target-height="200.10004" target-width="244" target-x="299" target-y="665.3"></path><path d="M 543.00 677.50 L 611.30 672.50 L 634.10 670.40 L 679.50 665.20 L 684.90 676.10 L 689.90 687.20 L 694.50 698.60 L 698.60 710.10 L 702.20 721.80 L 705.20 733.70 L 707.10 742.60 L 709.80 760.70 L 710.60 769.80 L 711.00 778.90 L 710.90 788.00 L 710.40 797.20 L 709.40 806.30 L 707.80 812.30 L 705.90 817.90 L 703.50 823.00 L 700.70 827.80 L 697.50 832.40 L 694.00 836.60 L 690.20 840.50 L 686.00 844.10 L 680.10 848.40 L 673.70 852.30 L 666.90 855.70 L 659.90 858.60 L 652.60 861.00 L 645.10 863.10 L 637.50 864.70 L 622.20 866.70 L 614.50 867.20 L 599.90 867.20 L 602.70 858.90 L 609.20 842.70 L 625.60 806.90 L 630.80 794.80 L 632.90 788.30 L 634.50 781.30 L 638.70 760.00 L 640.60 753.20 L 642.10 748.80 L 644.10 744.60 L 646.30 740.70 L 649.10 737.00 L 652.40 733.70 L 656.30 730.50 L 659.00 727.90 L 673.00 717.70 L 675.90 714.90 L 677.40 712.90 L 678.60 710.70 L 679.30 708.40 L 679.40 706.00 L 679.00 703.30 L 677.80 700.10 L 672.50 701.60 L 662.30 705.80 L 657.40 708.50 L 648.20 714.80 L 640.00 722.30 L 636.40 726.50 L 633.00 730.90 L 630.10 735.60 L 627.50 740.50 L 625.30 745.50 L 623.50 750.80 L 622.20 756.10 L 620.40 768.70 L 619.10 775.40 L 617.30 782.00 L 614.00 791.80 L 610.20 801.30 L 593.10 839.00 L 588.20 851.90 L 586.20 858.50 L 544.30 849.20 L 533.70 847.20 L 523.10 845.60 L 508.90 844.40 L 493.40 844.20 L 485.10 844.70 L 476.90 845.60 L 464.60 847.50 L 428.00 854.50 L 404.50 801.00 L 411.50 800.20 L 418.40 799.00 L 425.10 797.20 L 431.70 795.00 L 440.30 791.50 L 448.70 787.50 L 456.90 782.80 L 469.50 792.00 L 476.20 796.10 L 483.10 799.70 L 487.90 801.70 L 492.70 803.30 L 497.70 804.50 L 502.80 805.20 L 508.00 805.40 L 513.30 805.00 L 524.70 802.60 L 530.40 800.70 L 535.90 798.50 L 541.20 796.00 L 546.30 793.00 L 551.20 789.60 L 555.70 785.90 L 559.90 781.80 L 563.70 777.40 L 567.00 772.60 L 569.90 767.40 L 571.90 762.40 L 573.40 757.20 L 574.50 751.80 L 575.10 746.40 L 575.30 741.00 L 574.90 735.50 L 574.10 730.20 L 572.80 725.00 L 570.90 719.90 L 568.50 715.10 L 565.60 710.50 L 562.10 706.30 L 558.90 703.10 L 551.90 697.80 L 546.10 694.40 L 527.90 686.00 L 543.00 677.50 Z" fill="#fcd129" fill-rule="nonzero" node-id="62" stroke="none" target-height="202" target-width="306.5" target-x="404.5" target-y="665.2"></path><path d="M 936.10 699.30 L 940.60 701.20 L 944.50 703.40 L 947.90 705.90 L 951.00 708.80 L 953.70 712.10 L 956.00 715.60 L 958.00 719.30 L 959.60 723.30 L 961.10 728.90 L 962.10 734.60 L 962.50 740.60 L 962.30 746.60 L 961.60 752.50 L 960.40 758.30 L 958.60 764.00 L 956.40 769.40 L 950.80 779.20 L 947.50 783.80 L 940.20 792.10 L 934.90 797.00 L 929.10 801.60 L 923.00 805.80 L 916.70 809.60 L 903.40 816.40 L 893.10 820.90 L 852.40 836.30 L 842.70 839.30 L 813.40 847.40 L 803.80 850.40 L 791.30 855.30 L 785.20 858.20 L 776.60 869.30 L 764.60 886.80 L 755.90 897.80 L 743.70 909.80 L 736.00 916.20 L 728.00 922.00 L 719.70 927.20 L 711.00 932.00 L 702.10 936.20 L 693.00 940.00 L 683.60 943.20 L 674.00 945.90 L 664.30 948.10 L 654.60 949.80 L 644.60 951.10 L 634.70 951.80 L 624.70 952.00 L 614.80 951.70 L 604.80 951.00 L 594.90 949.80 L 585.20 948.10 L 575.60 945.90 L 566.10 943.20 L 556.90 940.20 L 547.50 937.70 L 538.00 935.60 L 528.40 934.10 L 518.70 933.10 L 509.00 932.60 L 499.30 932.70 L 489.60 933.30 L 479.90 934.40 L 470.40 936.00 L 460.90 938.20 L 441.70 944.00 L 431.80 946.40 L 421.80 948.30 L 411.70 949.70 L 401.50 950.50 L 391.40 950.80 L 381.20 950.60 L 371.00 949.90 L 360.80 948.70 L 350.70 947.10 L 340.80 945.00 L 330.90 942.40 L 319.00 937.80 L 307.90 931.80 L 300.90 927.20 L 294.30 922.10 L 287.90 916.60 L 281.90 910.70 L 276.20 904.40 L 270.80 897.90 L 260.80 884.20 L 252.30 871.60 L 248.10 866.10 L 245.00 862.70 L 241.60 859.70 L 238.00 857.00 L 232.10 853.80 L 228.90 852.80 L 212.30 849.20 L 199.30 846.10 L 186.40 842.50 L 173.50 838.50 L 160.90 834.00 L 148.50 829.10 L 136.20 823.60 L 124.30 817.60 L 112.70 811.10 L 104.20 805.80 L 95.90 800.10 L 87.90 794.10 L 78.30 786.20 L 77.00 784.50 L 76.20 782.70 L 75.40 779.60 L 75.40 766.20 L 74.90 763.20 L 83.00 769.90 L 91.30 776.10 L 99.90 781.90 L 108.70 787.20 L 117.70 792.20 L 136.40 801.20 L 158.90 810.10 L 172.10 814.70 L 185.30 818.80 L 205.40 824.50 L 228.30 830.40 L 233.50 832.60 L 238.40 836.40 L 243.20 842.10 L 252.20 856.70 L 259.40 867.40 L 263.80 873.30 L 268.50 878.90 L 273.40 884.20 L 278.60 889.10 L 285.50 895.00 L 292.70 900.30 L 300.20 905.20 L 308.10 909.70 L 316.20 913.60 L 324.50 917.10 L 333.00 920.10 L 341.80 922.70 L 350.70 924.80 L 359.60 926.40 L 368.70 927.60 L 377.80 928.30 L 387.00 928.50 L 396.10 928.20 L 405.10 927.50 L 414.20 926.30 L 423.10 924.60 L 431.90 922.50 L 440.50 919.90 L 455.30 914.20 L 461.80 912.10 L 468.30 910.60 L 481.60 908.60 L 488.40 908.20 L 498.60 908.10 L 508.80 908.50 L 529.00 910.60 L 536.80 912.40 L 544.50 914.70 L 567.30 922.70 L 575.00 925.10 L 585.40 927.50 L 590.70 928.30 L 600.10 929.20 L 609.60 929.70 L 619.00 929.80 L 628.50 929.50 L 638.00 928.70 L 647.30 927.50 L 656.60 925.80 L 665.80 923.60 L 674.90 920.90 L 683.80 917.70 L 692.40 914.00 L 708.80 905.40 L 716.30 900.60 L 723.40 895.40 L 730.10 889.70 L 736.40 883.50 L 742.40 877.00 L 748.00 870.20 L 753.30 863.00 L 758.20 855.60 L 762.70 848.00 L 766.90 840.10 L 770.70 832.10 L 805.50 824.80 L 822.80 820.50 L 839.90 815.50 L 862.40 807.80 L 873.40 803.30 L 884.20 798.50 L 894.80 793.20 L 905.20 787.40 L 912.50 782.80 L 924.20 774.40 L 932.60 766.70 L 936.40 762.40 L 939.70 757.80 L 942.70 752.80 L 944.20 748.30 L 945.30 743.80 L 945.90 739.30 L 946.10 734.70 L 945.80 728.50 L 944.80 722.50 L 943.30 716.40 L 941.30 710.50 L 938.90 704.80 L 936.10 699.30 Z" fill="#809334" fill-rule="nonzero" node-id="64" stroke="none" target-height="252.70001" target-width="887.6" target-x="74.9" target-y="699.3"></path><path d="M 540.50 730.20 L 556.10 716.50 L 558.80 720.60 L 560.90 724.60 L 562.50 728.60 L 563.60 732.60 L 564.30 736.70 L 564.60 740.80 L 564.50 744.90 L 563.90 748.90 L 562.70 754.20 L 560.80 759.40 L 558.30 764.40 L 555.30 769.20 L 551.90 773.70 L 547.90 777.90 L 543.70 781.80 L 539.10 785.20 L 534.10 788.20 L 529.00 790.80 L 523.60 792.70 L 518.10 794.10 L 513.90 794.80 L 505.50 795.00 L 496.90 793.70 L 488.80 790.90 L 483.00 788.10 L 477.40 784.80 L 466.80 777.60 L 489.00 764.70 L 500.40 758.60 L 500.10 775.30 L 512.40 767.60 L 516.00 769.30 L 519.70 770.60 L 523.30 771.20 L 527.10 771.30 L 530.90 770.80 L 534.80 769.70 L 525.90 753.90 L 534.50 746.50 L 538.70 742.10 L 540.80 738.00 L 541.20 735.80 L 541.20 733.20 L 540.50 730.20 Z" fill="#fcfcfd" fill-rule="nonzero" node-id="66" stroke="none" target-height="78.5" target-width="97.79999" target-x="466.8" target-y="716.5"></path></svg>